<?xml version="1.0" encoding="UTF-8" standalone="no"?>
<!-- Created with Inkscape (http://www.inkscape.org/) -->

<svg
   xmlns:dc="http://purl.org/dc/elements/1.1/"
   xmlns:cc="http://creativecommons.org/ns#"
   xmlns:rdf="http://www.w3.org/1999/02/22-rdf-syntax-ns#"
   xmlns:svg="http://www.w3.org/2000/svg"
   xmlns="http://www.w3.org/2000/svg"
   xmlns:xlink="http://www.w3.org/1999/xlink"
   xmlns:sodipodi="http://sodipodi.sourceforge.net/DTD/sodipodi-0.dtd"
   xmlns:inkscape="http://www.inkscape.org/namespaces/inkscape"
   width="64px"
   height="64px"
   id="svg4284"
   version="1.1"
   inkscape:version="0.47pre4 r22446"
   sodipodi:docname="New document 18">
  <defs
     id="defs4286">
    <inkscape:perspective
       sodipodi:type="inkscape:persp3d"
       inkscape:vp_x="0 : 32 : 1"
       inkscape:vp_y="0 : 1000 : 0"
       inkscape:vp_z="64 : 32 : 1"
       inkscape:persp3d-origin="32 : 21.333333 : 1"
       id="perspective4292" />
    <inkscape:perspective
       id="perspective4262"
       inkscape:persp3d-origin="0.5 : 0.33333333 : 1"
       inkscape:vp_z="1 : 0.5 : 1"
       inkscape:vp_y="0 : 1000 : 0"
       inkscape:vp_x="0 : 0.5 : 1"
       sodipodi:type="inkscape:persp3d" />
    <linearGradient
       inkscape:collect="always"
       xlink:href="#linearGradient4178"
       id="linearGradient4184"
       x1="64.936012"
       y1="96.195915"
       x2="64.936012"
       y2="59.937759"
       gradientUnits="userSpaceOnUse"
       gradientTransform="translate(-125.34962,-19.079267)" />
    <linearGradient
       id="linearGradient4178">
      <stop
         style="stop-color:#000000;stop-opacity:1;"
         offset="0"
         id="stop4180" />
      <stop
         style="stop-color:#5c5c5c;stop-opacity:1;"
         offset="1"
         id="stop4182" />
    </linearGradient>
    <radialGradient
       inkscape:collect="always"
       xlink:href="#linearGradient4206"
       id="radialGradient4212"
       cx="-29.762936"
       cy="65.582596"
       fx="-29.762936"
       fy="65.582596"
       r="19.242895"
       gradientTransform="matrix(-0.04190595,-0.04190592,0.13011055,-0.13011055,25.402356,52.401356)"
       gradientUnits="userSpaceOnUse" />
    <linearGradient
       id="linearGradient4206">
      <stop
         style="stop-color:#fff4e5;stop-opacity:1;"
         offset="0"
         id="stop4208" />
      <stop
         style="stop-color:#ffcd8b;stop-opacity:1;"
         offset="1"
         id="stop4210" />
    </linearGradient>
    <radialGradient
       r="19.242895"
       fy="116.64561"
       fx="100.92672"
       cy="116.64561"
       cx="100.92672"
       gradientTransform="matrix(-0.4280844,0.03210749,-0.05552257,-0.74036525,85.593533,107.52948)"
       gradientUnits="userSpaceOnUse"
       id="radialGradient4231"
       xlink:href="#linearGradient4206-6"
       inkscape:collect="always" />
    <linearGradient
       id="linearGradient4206-6">
      <stop
         style="stop-color:#ffe6c3;stop-opacity:1;"
         offset="0"
         id="stop4208-0" />
      <stop
         style="stop-color:#ffcd8b;stop-opacity:1;"
         offset="1"
         id="stop4210-6" />
    </linearGradient>
    <linearGradient
       y2="59.937759"
       x2="64.936012"
       y1="96.195915"
       x1="64.936012"
       gradientTransform="matrix(0.50838266,0,0,0.50838266,-1.4052931,10.305656)"
       gradientUnits="userSpaceOnUse"
       id="linearGradient4282"
       xlink:href="#linearGradient4178"
       inkscape:collect="always" />
  </defs>
  <sodipodi:namedview
     id="base"
     pagecolor="#ffffff"
     bordercolor="#666666"
     borderopacity="1.0"
     inkscape:pageopacity="0.0"
     inkscape:pageshadow="2"
     inkscape:zoom="2.75"
     inkscape:cx="58.674669"
     inkscape:cy="27.468228"
     inkscape:current-layer="layer1"
     showgrid="true"
     inkscape:document-units="px"
     inkscape:grid-bbox="true"
     inkscape:window-width="1600"
     inkscape:window-height="800"
     inkscape:window-x="0"
     inkscape:window-y="25"
     inkscape:window-maximized="1" />
  <metadata
     id="metadata4289">
    <rdf:RDF>
      <cc:Work
         rdf:about="">
        <dc:format>image/svg+xml</dc:format>
        <dc:type
           rdf:resource="http://purl.org/dc/dcmitype/StillImage" />
        <dc:title></dc:title>
      </cc:Work>
    </rdf:RDF>
  </metadata>
  <g
     id="layer1"
     inkscape:label="Layer 1"
     inkscape:groupmode="layer">
    <path
       style="fill:url(#linearGradient4282);fill-opacity:1;stroke:#000000;stroke-width:0.50838268px;stroke-linecap:butt;stroke-linejoin:miter;stroke-opacity:1"
       d="m 1.4457729,59.048206 c 0,0 1.9507304,-8.103029 3.7514065,-10.804039 1.800671,-2.701011 4.2015691,-3.001123 4.2015691,-3.001123 l 23.2586975,-4.201571 21.157907,3.751403 c 0,0 1.500563,0.300112 2.550958,1.200449 1.050389,0.900336 2.701006,3.751403 2.701006,3.751403 l 4.051514,9.603592 c 0,0 -0.300108,0.600221 -1.950724,1.80067 -1.650617,1.200449 -1.500563,1.200449 -1.500563,1.200449 l -54.3203104,0 c 0,0 -1.3505033,-0.450167 -2.5509523,-1.500557 C 1.5958322,59.798487 1.2957187,59.048206 1.4457729,59.048206 z"
       id="path4176" />
    <path
       style="fill:url(#radialGradient4212);fill-opacity:1;stroke:#d69d57;stroke-width:0.50838268px;stroke-linecap:butt;stroke-linejoin:miter;stroke-opacity:0.97254902"
       d="m 22.352791,43.014825 c 0,0 1.500562,5.40202 9.603591,5.552076 8.10303,0.150057 9.453535,-5.101908 9.453535,-5.101908 l -1.200449,-8.403142 -15.755891,0 -2.100786,7.952974 z"
       id="path4186"
       sodipodi:nodetypes="cscccc" />
    <path
       style="fill:url(#radialGradient4231);fill-opacity:1;stroke:#d69d57;stroke-width:0.50838268px;stroke-linecap:butt;stroke-linejoin:miter;stroke-opacity:0.97254902"
       d="M 43.90976,15.229173 39.081926,8.8579513 26.762714,7.3023609 l -7.097301,7.7146011 0.801603,20.30103 c 0.07373,1.867339 8.587374,6.204795 11.462523,6.198895 2.87515,-0.0059 10.385549,-4.562374 10.543734,-6.717434 l 1.436487,-19.57028 z"
       id="path4186-1"
       sodipodi:nodetypes="cccczzzc" />
    <path
       style="fill:#9f6a08;fill-opacity:1;stroke:none"
       d="m 19.241369,21.771064 c 0,0 -0.848846,-1.697691 -0.954952,-3.183171 -0.106106,-1.485481 0.212211,-7.321293 2.546536,-9.8678307 2.334326,-2.5465365 5.835814,-4.8808607 10.928888,-4.7747555 5.093072,0.1061052 8.064032,1.2732683 10.292251,4.1381223 2.22822,2.8648529 2.970959,5.7297079 2.970959,7.9579279 0,2.228219 0.212213,1.697691 -0.318316,3.819804 -0.530529,2.122114 -0.848846,1.379375 -0.848846,1.379375 l -2.440431,-6.684659 c 0,0 -2.334325,1.48548 -4.456439,0.848844 -2.122114,-0.636634 -4.244228,-1.167162 -5.835813,-3.183171 -1.591585,-2.016007 -2.016008,-3.1831701 -2.016008,-3.1831701 0,0 -2.864854,0.3183175 -5.305285,3.2892771 -2.440431,2.970959 -4.562544,9.655618 -4.562544,9.443407 z"
       id="path4252" />
  </g>
</svg>
